<svg xmlns="http://www.w3.org/2000/svg" version="1.1" xmlns:xlink="http://www.w3.org/1999/xlink" width="1000" height="1000"><style>
    #light-icon {
      display: inline;
    }
    #dark-icon {
      display: none;
    }

    @media (prefers-color-scheme: dark) {
      #light-icon {
        display: none;
      }
      #dark-icon {
        display: inline;
      }
    }
  </style><g id="light-icon"><svg xmlns="http://www.w3.org/2000/svg" version="1.1" xmlns:xlink="http://www.w3.org/1999/xlink" width="1000" height="1000"><g><g transform="matrix(6.666666666666667,0,0,6.666666666666667,0,0)"><svg xmlns="http://www.w3.org/2000/svg" version="1.1" xmlns:xlink="http://www.w3.org/1999/xlink" width="150" height="150"><svg version="1.1" width="150" height="150" xmlns="http://www.w3.org/2000/svg" shape-rendering="crispEdges">
<rect x="10" y="0" width="20" height="50" fill="#D63D3D"></rect>
<rect x="120" y="0" width="20" height="50" fill="#D63D3D"></rect>
<rect x="0" y="10" width="10" height="20" fill="#D63D3D"></rect>
<rect x="30" y="10" width="20" height="50" fill="#D63D3D"></rect>
<rect x="100" y="10" width="20" height="50" fill="#D63D3D"></rect>
<rect x="140" y="10" width="10" height="20" fill="#D63D3D"></rect>
<rect x="50" y="20" width="10" height="50" fill="#D63D3D"></rect>
<rect x="90" y="20" width="10" height="50" fill="#D63D3D"></rect>
<rect x="60" y="40" width="10" height="20" fill="#D63D3D"></rect>
<rect x="80" y="40" width="10" height="20" fill="#D63D3D"></rect>
<rect x="20" y="50" width="10" height="10" fill="#D63D3D"></rect>
<rect x="120" y="50" width="10" height="10" fill="#D63D3D"></rect>
<rect x="40" y="60" width="10" height="10" fill="#D63D3D"></rect>
<rect x="100" y="60" width="10" height="10" fill="#D63D3D"></rect>
<rect x="40" y="80" width="20" height="50" fill="#D63D3D"></rect>
<rect x="90" y="80" width="20" height="50" fill="#D63D3D"></rect>
<rect x="20" y="90" width="20" height="50" fill="#D63D3D"></rect>
<rect x="60" y="90" width="10" height="20" fill="#D63D3D"></rect>
<rect x="80" y="90" width="10" height="20" fill="#D63D3D"></rect>
<rect x="110" y="90" width="20" height="50" fill="#D63D3D"></rect>
<rect x="10" y="100" width="10" height="50" fill="#D63D3D"></rect>
<rect x="130" y="100" width="10" height="50" fill="#D63D3D"></rect>
<rect x="0" y="120" width="10" height="20" fill="#D63D3D"></rect>
<rect x="140" y="120" width="10" height="20" fill="#D63D3D"></rect>
<rect x="40" y="130" width="10" height="10" fill="#D63D3D"></rect>
<rect x="100" y="130" width="10" height="10" fill="#D63D3D"></rect>
<rect x="20" y="140" width="10" height="10" fill="#D63D3D"></rect>
<rect x="120" y="140" width="10" height="10" fill="#D63D3D"></rect>
</svg></svg></g></g></svg></g><g id="dark-icon"><svg xmlns="http://www.w3.org/2000/svg" version="1.1" xmlns:xlink="http://www.w3.org/1999/xlink" width="1000" height="1000"><g><g transform="matrix(6.666666666666667,0,0,6.666666666666667,0,0)"><svg xmlns="http://www.w3.org/2000/svg" version="1.1" xmlns:xlink="http://www.w3.org/1999/xlink" width="150" height="150"><svg version="1.1" width="150" height="150" xmlns="http://www.w3.org/2000/svg" shape-rendering="crispEdges">
<rect x="10" y="0" width="20" height="50" fill="#D5212C"></rect>
<rect x="120" y="0" width="20" height="50" fill="#D5212C"></rect>
<rect x="0" y="10" width="10" height="20" fill="#D5212C"></rect>
<rect x="30" y="10" width="20" height="50" fill="#D5212C"></rect>
<rect x="100" y="10" width="20" height="50" fill="#D5212C"></rect>
<rect x="140" y="10" width="10" height="20" fill="#D5212C"></rect>
<rect x="50" y="20" width="10" height="50" fill="#D5212C"></rect>
<rect x="90" y="20" width="10" height="50" fill="#D5212C"></rect>
<rect x="60" y="40" width="10" height="20" fill="#D5212C"></rect>
<rect x="80" y="40" width="10" height="20" fill="#D5212C"></rect>
<rect x="20" y="50" width="10" height="10" fill="#D5212C"></rect>
<rect x="120" y="50" width="10" height="10" fill="#D5212C"></rect>
<rect x="40" y="60" width="10" height="10" fill="#D5212C"></rect>
<rect x="100" y="60" width="10" height="10" fill="#D5212C"></rect>
<rect x="40" y="80" width="20" height="50" fill="#D5212C"></rect>
<rect x="90" y="80" width="20" height="50" fill="#D5212C"></rect>
<rect x="20" y="90" width="20" height="50" fill="#D5212C"></rect>
<rect x="60" y="90" width="10" height="20" fill="#D5212C"></rect>
<rect x="80" y="90" width="10" height="20" fill="#D5212C"></rect>
<rect x="110" y="90" width="20" height="50" fill="#D5212C"></rect>
<rect x="10" y="100" width="10" height="50" fill="#D5212C"></rect>
<rect x="130" y="100" width="10" height="50" fill="#D5212C"></rect>
<rect x="0" y="120" width="10" height="20" fill="#D5212C"></rect>
<rect x="140" y="120" width="10" height="20" fill="#D5212C"></rect>
<rect x="40" y="130" width="10" height="10" fill="#D5212C"></rect>
<rect x="100" y="130" width="10" height="10" fill="#D5212C"></rect>
<rect x="20" y="140" width="10" height="10" fill="#D5212C"></rect>
<rect x="120" y="140" width="10" height="10" fill="#D5212C"></rect>
</svg></svg></g></g></svg></g></svg>