<svg viewBox="0 0 1000 1000" fill="none" xmlns="http://www.w3.org/2000/svg">
<path fill-rule="evenodd" clip-rule="evenodd" d="M550 0C577.398 0 599.65 22.0372 599.996 49.3535L600.004 50.6465C600.347 77.7476 622.252 99.6527 649.354 99.9961L650.646 100.004C677.748 100.347 699.653 122.252 699.996 149.354L700.004 150.646C700.347 177.748 722.252 199.653 749.354 199.996L750.646 200.004C777.748 200.347 799.653 222.252 799.996 249.354L800.004 250.646C800.347 277.748 822.252 299.653 849.354 299.996L850.646 300.004C877.748 300.347 899.653 322.252 899.996 349.354L900.004 350.646C900.347 377.748 922.252 399.653 949.354 399.996L950.646 400.004C977.963 400.35 1000 422.602 1000 450V650C1000 677.398 977.963 699.65 950.646 699.996L949.354 700.004C922.037 700.35 900 722.602 900 750V850C900 877.398 877.963 899.65 850.646 899.996L849.354 900.004C822.252 900.347 800.347 922.252 800.004 949.354L799.996 950.646C799.65 977.963 777.398 1000 750 1000H250C222.602 1000 200.35 977.963 200.004 950.646L199.996 949.354C199.653 922.252 177.748 900.347 150.646 900.004L149.354 899.996C122.037 899.65 100 877.398 100 850V750C100 722.602 77.9628 700.35 50.6465 700.004L49.3535 699.996C22.0372 699.65 0 677.398 0 650V450C0 422.602 22.0372 400.35 49.3535 400.004L50.6465 399.996C77.7476 399.653 99.6527 377.748 99.9961 350.646L100.004 349.354C100.347 322.252 122.252 300.347 149.354 300.004L150.646 299.996C177.748 299.653 199.653 277.748 199.996 250.646L200.004 249.354C200.347 222.252 222.252 200.347 249.354 200.004L250.646 199.996C277.748 199.653 299.653 177.748 299.996 150.646L300.004 149.354C300.347 122.252 322.252 100.347 349.354 100.004L350.646 99.9961C377.748 99.6527 399.653 77.7476 399.996 50.6465L400.004 49.3535C400.35 22.0372 422.602 0 450 0H550ZM250 300C222.602 300 200.35 322.037 200.004 349.354L199.996 350.646C199.653 377.748 177.748 399.653 150.646 399.996L149.354 400.004C122.037 400.35 100 422.602 100 450V550C100 577.614 122.386 600 150 600C177.398 600 199.65 577.963 199.996 550.646L200.004 549.354C200.35 522.037 222.602 500 250 500H350C377.398 500 399.65 522.037 399.996 549.354L400.004 550.646C400.35 577.963 422.602 600 450 600H550C577.398 600 599.65 577.963 599.996 550.646L600.004 549.354C600.35 522.037 622.602 500 650 500H750C777.398 500 799.65 522.037 799.996 549.354L800.004 550.646C800.35 577.963 822.602 600 850 600C877.614 600 900 577.614 900 550V450C900 422.602 877.963 400.35 850.646 400.004L849.354 399.996C822.252 399.653 800.347 377.748 800.004 350.646L799.996 349.354C799.65 322.037 777.398 300 750 300H650C622.602 300 600.35 322.037 600.004 349.354L599.996 350.646C599.65 377.963 577.398 400 550 400H450C422.602 400 400.35 377.963 400.004 350.646L399.996 349.354C399.65 322.037 377.398 300 350 300H250ZM450 100C422.386 100 400 122.386 400 150V250C400 277.614 422.386 300 450 300H550C577.614 300 600 277.614 600 250V150C600 122.386 577.614 100 550 100H450Z" fill="#currentColor"/>
</svg>