<svg viewBox="0 0 1000 1000" fill="none" xmlns="http://www.w3.org/2000/svg">
<path d="M550 300C577.614 300 600 322.386 600 350V350C600 377.614 622.386 400 650 400V400C677.614 400 700 422.386 700 450V550C700 577.614 677.614 600 650 600V600C622.386 600 600 622.386 600 650V650C600 677.614 577.614 700 550 700H450C422.386 700 400 677.614 400 650V650C400 622.386 377.614 600 350 600V600C322.386 600 300 577.614 300 550V450C300 422.386 322.386 400 350 400V400C377.614 400 400 377.614 400 350V350C400 322.386 422.386 300 450 300H550Z" fill="red"/>
<path fill-rule="evenodd" clip-rule="evenodd" d="M700 50C700 77.6142 722.386 100 750 100V100C777.614 100 800 122.386 800 150V150C800 177.614 822.386 200 850 200V200C877.614 200 900 222.386 900 250V250C900 277.614 922.386 300 950 300V300C977.614 300 1000 322.386 1000 350V650C1000 677.614 977.614 700 950 700V700C922.386 700 900 722.386 900 750V750C900 777.614 877.614 800 850 800V800C822.386 800 800 822.386 800 850V850C800 877.614 777.614 900 750 900V900C722.386 900 700 922.386 700 950V950C700 977.614 677.614 1000 650 1000H350C322.386 1000 300 977.614 300 950V950C300 922.386 277.614 900 250 900V900C222.386 900 200 877.614 200 850V850C200 822.386 177.614 800 150 800V800C122.386 800 100 777.614 100 750V750C100 722.386 77.6142 700 50 700V700C22.3858 700 0 677.614 0 650V350C0 322.386 22.3858 300 50 300V300C77.6142 300 100 277.614 100 250V250C100 222.386 122.386 200 150 200V200C177.614 200 200 177.614 200 150V150C200 122.386 222.386 100 250 100V100C277.614 100 300 77.6142 300 50V50C300 22.3858 322.386 0 350 0H650C677.614 0 700 22.3858 700 50V50ZM300 250C300 277.614 277.614 300 250 300V300C222.386 300 200 322.386 200 350V350C200 377.614 177.614 400 150 400V400C122.386 400 100 422.386 100 450V450C100 477.614 122.386 500 150 500V500C177.614 500 200 522.386 200 550V650C200 677.614 222.386 700 250 700V700C277.614 700 300 722.386 300 750V750C300 777.614 322.386 800 350 800V800C377.614 800 400 822.386 400 850V850C400 877.614 422.386 900 450 900V900C477.614 900 500 877.614 500 850V850C500 822.386 522.386 800 550 800H650C677.614 800 700 777.614 700 750V750C700 722.386 722.386 700 750 700V700C777.614 700 800 677.614 800 650V650C800 622.386 822.386 600 850 600V600C877.614 600 900 577.614 900 550V550C900 522.386 877.614 500 850 500V500C822.386 500 800 477.614 800 450V350C800 322.386 777.614 300 750 300V300C722.386 300 700 277.614 700 250V250C700 222.386 677.614 200 650 200V200C622.386 200 600 177.614 600 150V150C600 122.386 577.614 100 550 100V100C522.386 100 500 122.386 500 150V150C500 177.614 477.614 200 450 200H350C322.386 200 300 222.386 300 250V250Z" fill="red"/>
</svg>