<svg width="200" height="200" viewBox="0 0 200 200" fill="none" xmlns="http://www.w3.org/2000/svg">
<path d="M99.7861 0C135.567 0 164.573 29.0057 164.573 64.7861C164.573 95.6069 125.541 165.46 108.069 195.184C104.309 201.582 95.2646 201.582 91.5039 195.184C74.0323 165.46 35 95.6069 35 64.7861C35.0003 29.0059 64.0059 0.000259152 99.7861 0ZM99.7861 16.7197C73.2392 16.7197 51.7188 38.2402 51.7188 64.7871C51.7188 91.334 73.2392 112.854 99.7861 112.854C126.333 112.854 147.854 91.3341 147.854 64.7871C147.853 38.2402 126.333 16.7197 99.7861 16.7197Z" fill="white"/>
<circle cx="100" cy="65" r="29" fill="white"/>
</svg>