<?xml version="1.0" encoding="UTF-8" ?>
<svg version="1.1" width="210" height="210" xmlns="http://www.w3.org/2000/svg" shape-rendering="crispEdges">
<rect x="100" y="0" width="10" height="40" fill="#000000" />
<rect x="90" y="40" width="10" height="20" fill="#000000" />
<rect x="110" y="40" width="10" height="20" fill="#000000" />
<rect x="80" y="60" width="10" height="20" fill="#000000" />
<rect x="120" y="60" width="10" height="20" fill="#000000" />
<rect x="100" y="70" width="10" height="20" fill="#000000" />
<rect x="60" y="80" width="20" height="10" fill="#000000" />
<rect x="130" y="80" width="20" height="10" fill="#000000" />
<rect x="40" y="90" width="20" height="10" fill="#000000" />
<rect x="90" y="90" width="10" height="10" fill="#000000" />
<rect x="110" y="90" width="10" height="10" fill="#000000" />
<rect x="150" y="90" width="20" height="10" fill="#000000" />
<rect x="0" y="100" width="40" height="10" fill="#000000" />
<rect x="70" y="100" width="20" height="10" fill="#000000" />
<rect x="120" y="100" width="20" height="10" fill="#000000" />
<rect x="170" y="100" width="40" height="10" fill="#000000" />
<rect x="40" y="110" width="20" height="10" fill="#000000" />
<rect x="90" y="110" width="10" height="10" fill="#000000" />
<rect x="110" y="110" width="10" height="10" fill="#000000" />
<rect x="150" y="110" width="20" height="10" fill="#000000" />
<rect x="60" y="120" width="20" height="10" fill="#000000" />
<rect x="100" y="120" width="10" height="20" fill="#000000" />
<rect x="130" y="120" width="20" height="10" fill="#000000" />
<rect x="80" y="130" width="10" height="20" fill="#000000" />
<rect x="120" y="130" width="10" height="20" fill="#000000" />
<rect x="90" y="150" width="10" height="20" fill="#000000" />
<rect x="110" y="150" width="10" height="20" fill="#000000" />
<rect x="100" y="170" width="10" height="40" fill="#000000" />
</svg>