<?xml version="1.0" encoding="utf-8"?>
<!-- Generator: Adobe Illustrator 28.1.0, SVG Export Plug-In . SVG Version: 6.00 Build 0)  -->
<svg version="1.1" id="Layer_1" xmlns="http://www.w3.org/2000/svg" xmlns:xlink="http://www.w3.org/1999/xlink" x="0px" y="0px"
	 viewBox="0 0 503.5 503.5" style="enable-background:new 0 0 503.5 503.5;" xml:space="preserve">
<path d="M424.6,287.7V53.5c0-37.5-27-59.5-63.7-51.3L230.7,31c-39.2,9.1-53,34.1-53,57l0,0c0,36.9,17.1,49.5,41.3,49.5l0,0
	c40,0,59-22.7,59-60.7v-22c0-16.5,8.4-26.5,18.8-28.6c14.3-2.8,27.7,6.7,27.7,27.3v59.2c0,31.4-14.4,47.4-43.4,53.9l-55.3,12.3
	c-32.2,7.1-47.9,27.3-47.9,60.3v212.6c0,16.3-8.3,26.2-18.8,27.9c-10.5,1.8-24.2-1.4-27.7-23.3l0,0c-3-30.7-29.1-54.8-61.9-47.3l0,0
	c-4.1,0.9-35.5,5.6-36.9,38.2l0,0c0,21.1,14.5,63.3,70.6,54.6l132.4-29.3c29.3-6.5,42.6-24.3,42.6-52.9v-11.1
	c0-27.8,14.6-46.5,42.5-52.7l144.3-32c5.1-1.1,6.3-3,6.3-5.2l0,0c0-3.1-2.7-5.4-8.2-4.1l-4,0.9C437.6,320,424.6,310.1,424.6,287.7
	L424.6,287.7z M325.3,321.4c0,16.2-7.9,25.2-18.9,27.7c0,0-0.1,0-0.1,0c-0.1,0-0.2,0-0.4,0.1c-1.7,0.3-3.3,0.5-5,0.5
	c-13.1,0-24.2-9.6-24.2-28.4l0.2-120c0-17.1,7.9-25.8,18.9-28.3c0,0,0.4-0.1,0.5-0.1c1.7-0.3,3.3-0.5,5-0.5
	c13.1,0,24.2,10,24.2,28.9L325.3,321.4L325.3,321.4z"/>
</svg>
