<svg viewBox="0 0 1000 1000" fill="none" xmlns="http://www.w3.org/2000/svg">
<path d="M650 0C677.614 0 700 22.3858 700 50V50C700 77.6142 722.386 100 750 100V100C777.614 100 800 122.386 800 150V450C800 477.614 777.614 500 750 500V500C722.386 500 700 522.386 700 550V550C700 577.614 677.614 600 650 600H350C322.386 600 300 577.614 300 550V550C300 522.386 277.614 500 250 500V500C222.386 500 200 477.614 200 450V150C200 122.386 222.386 100 250 100V100C277.614 100 300 77.6142 300 50V50C300 22.3858 322.386 0 350 0H650Z" fill="currentColor"/>
<path d="M900 750C900 777.614 922.386 800 950 800C977.614 800 1000 822.386 1000 850V950C1000 977.614 977.614 1000 950 1000H50C22.3858 1000 0 977.614 0 950V850C0 822.386 22.3858 800 50 800C77.6142 800 100 777.614 100 750C100 722.386 122.386 700 150 700H850C877.614 700 900 722.386 900 750Z" fill="currentColor"/>
</svg>