<svg width="200" height="200" viewBox="0 0 1000 1000" fill="none" xmlns="http://www.w3.org/2000/svg">
<path d="M800 750C800 777.614 822.386 800 850 800V800C877.614 800 900 822.386 900 850V950C900 977.614 877.614 1000 850 1000H150C122.386 1000 100 977.614 100 950V850C100 822.386 122.386 800 150 800V800C177.614 800 200 777.614 200 750V750C200 722.386 222.386 700 250 700H750C777.614 700 800 722.386 800 750V750Z" fill="currentColor"/>
<path d="M650 0C677.614 0 700 22.3858 700 50V50C700 77.6142 722.386 100 750 100V100C777.614 100 800 122.386 800 150V450C800 477.614 777.614 500 750 500V500C722.386 500 700 522.386 700 550V550C700 577.614 677.614 600 650 600H350C322.386 600 300 577.614 300 550V550C300 522.386 277.614 500 250 500V500C222.386 500 200 477.614 200 450V150C200 122.386 222.386 100 250 100V100C277.614 100 300 77.6142 300 50V50C300 22.3858 322.386 0 350 0H650Z" fill="currentColor"/>
</svg>