<svg version="1.1" viewbox="0 0 10 10" xmlns="http://www.w3.org/2000/svg" shape-rendering="crispEdges" fill="currentColor">
    <rect x="4" y="0" width="2" height="1"/>
    <rect x="3" y="1" width="1" height="2"/>
    <rect x="6" y="1" width="1" height="2"/>
    <rect x="2" y="2" width="1" height="1"/>
    <rect x="7" y="2" width="1" height="1"/>
    <rect x="1" y="3" width="1" height="1"/>
    <rect x="4" y="3" width="2" height="1"/>
    <rect x="8" y="3" width="1" height="1"/>
    <rect x="0" y="4" width="1" height="3"/>
    <rect x="9" y="4" width="1" height="3"/>
    <rect x="2" y="5" width="2" height="5"/>
    <rect x="6" y="5" width="2" height="5"/>
    <rect x="1" y="6" width="1" height="3"/>
    <rect x="4" y="6" width="2" height="4"/>
    <rect x="8" y="6" width="1" height="3"/>
</svg>