<svg version="1.1" viewbox="0 0 13 10" xmlns="http://www.w3.org/2000/svg" shape-rendering="crispEdges" fill="currentColor">
    <rect x="1" y="0" width="11" height="1"/>
    <rect x="0" y="1" width="1" height="8"/>
    <rect x="2" y="1" width="9" height="1"/>
    <rect x="12" y="1" width="1" height="8"/>
    <rect x="1" y="2" width="1" height="8"/>
    <rect x="3" y="2" width="7" height="1"/>
    <rect x="11" y="2" width="1" height="8"/>
    <rect x="2" y="3" width="1" height="7"/>
    <rect x="4" y="3" width="5" height="1"/>
    <rect x="10" y="3" width="1" height="7"/>
    <rect x="3" y="4" width="1" height="6"/>
    <rect x="5" y="4" width="3" height="1"/>
    <rect x="9" y="4" width="1" height="6"/>
    <rect x="4" y="5" width="1" height="5"/>
    <rect x="6" y="5" width="1" height="1"/>
    <rect x="8" y="5" width="1" height="5"/>
    <rect x="5" y="6" width="1" height="4"/>
    <rect x="7" y="6" width="1" height="4"/>
    <rect x="6" y="7" width="1" height="3"/>
</svg>