<svg version="1.1" viewbox="0 0 10 10" xmlns="http://www.w3.org/2000/svg" shape-rendering="crispEdges" fill="currentColor">
    <rect x="3" y="0" width="4" height="1"/>
    <rect x="2" y="1" width="1" height="1"/>
    <rect x="7" y="1" width="1" height="1"/>
    <rect x="1" y="2" width="1" height="1"/>
    <rect x="8" y="2" width="1" height="1"/>
    <rect x="0" y="3" width="1" height="4"/>
    <rect x="4" y="3" width="2" height="4"/>
    <rect x="9" y="3" width="1" height="4"/>
    <rect x="3" y="4" width="1" height="2"/>
    <rect x="6" y="4" width="1" height="2"/>
    <rect x="1" y="7" width="1" height="1"/>
    <rect x="8" y="7" width="1" height="1"/>
    <rect x="2" y="8" width="1" height="1"/>
    <rect x="7" y="8" width="1" height="1"/>
    <rect x="3" y="9" width="4" height="1"/>
</svg>